<?xml version="1.0" encoding="UTF-8"?>
<svg width="350px" height="532px" viewBox="0 0 350 532" version="1.1" xmlns="http://www.w3.org/2000/svg" xmlns:xlink="http://www.w3.org/1999/xlink">
    <!-- Generator: Sketch 48.2 (47327) - http://www.bohemiancoding.com/sketch -->
    <title>ROCKET</title>
    <desc>Created with Sketch.</desc>
    <defs></defs>
    <g id="Page-1" stroke="none" stroke-width="1" fill="none" fill-rule="evenodd">
        <g id="ROCKET" transform="translate(-120.000000, -1.000000)">
            <path d="M295,339 L393.563218,339 L470,485 L295,485 L120,485 L196.436782,339 L295,339 Z" id="Combined-Shape" fill="#FF7058"></path>
            <g id="startup" transform="translate(294.976226, 294.156421) rotate(-315.000000) translate(-294.976226, -294.156421) translate(87.476226, 85.656421)" fill-rule="nonzero">
                <path d="M411.84,305.26 C382.583,126.583 228.983,-5.074 38.811,0.15 L1.195,1.195 L0.15,38.811 C-5.074,228.983 126.583,382.583 305.26,411.84 L411.84,305.26 Z" id="Shape" fill="#F2F2F2"></path>
                <g id="Group" transform="translate(0.000000, 0.000000)" fill="#40596B">
                    <path d="M223.758,388.852 C249.88,399.301 277.048,406.615 305.26,411.84 L410.795,306.305 C406.615,278.093 398.256,250.925 387.807,224.803 L223.758,388.852 Z" id="Shape"></path>
                    <path d="M163.154,16.869 C124.493,5.375 82.697,-0.895 38.811,0.15 L1.195,1.195 L0.15,38.811 C-0.895,82.697 5.374,124.493 16.868,163.154 L163.154,16.869 Z" id="Shape"></path>
                </g>
                <path d="M305.26,411.84 C315.709,413.93 327.203,414.975 337.652,416.02 L414.974,338.698 C413.929,327.204 412.884,316.755 410.794,306.306 L305.26,411.84 Z" id="Shape" fill="#F2F2F2"></path>
                <circle id="Oval" fill="#40596B" cx="174.515" cy="174.962" r="80.456"></circle>
                <circle id="Oval" fill="#84DBFF" cx="174.515" cy="174.962" r="56.424"></circle>
                <path d="M139.122,147.481 C158.975,127.628 190.322,127.628 210.175,147.481 C228.983,166.289 230.028,196.591 212.265,216.444 C213.31,215.399 214.355,215.399 214.355,214.354 C236.298,192.411 236.298,156.885 214.355,134.942 C192.412,112.999 156.886,112.999 134.943,134.942 C113,156.885 113,192.411 134.943,214.354 C135.988,215.399 137.033,215.399 137.033,216.444 C120.314,196.591 120.314,166.289 139.122,147.481 Z" id="Shape" fill="#54C0EB"></path>
            </g>
        </g>
    </g>
</svg>